<svg width="258" height="36" viewBox="0 0 258 36" fill="white" xmlns="http://www.w3.org/2000/svg">
<g clip-path="url(#clip0_360_1062)">
<path d="M123.802 15.3747L119.227 4.42758H119.184C119.195 4.62684 119.204 4.83715 119.213 5.05577C119.222 5.2744 119.23 5.50406 119.236 5.74204C119.242 5.98002 119.245 6.22904 119.245 6.48638V15.3747H118.41V3.51989H119.739L124.151 14.0769H124.204L128.651 3.51989H129.945V15.3747H129.084V6.3895C129.084 6.1792 129.087 5.96329 129.093 5.74195C129.098 5.52061 129.107 5.29919 129.116 5.08056C129.125 4.86194 129.133 4.64892 129.145 4.44413H129.093L124.5 15.3747H123.802ZM141.953 3.51989L137.573 12.6822C137.294 13.2606 137 13.767 136.689 14.2015C136.381 14.6331 136.012 14.968 135.578 15.2032C135.148 15.4385 134.607 15.5574 133.961 15.5574C133.618 15.5574 133.327 15.5326 133.083 15.4855C132.839 15.4357 132.623 15.3776 132.434 15.314V14.47C132.644 14.5696 132.871 14.6443 133.115 14.697C133.359 14.7523 133.624 14.78 133.909 14.78C134.392 14.78 134.799 14.6859 135.13 14.5033C135.465 14.3179 135.756 14.0495 136.006 13.6953C136.256 13.3383 136.497 12.9038 136.73 12.3891L131.864 3.52014H132.827L136.686 10.6098C136.753 10.7316 136.814 10.845 136.87 10.9557C136.925 11.0664 136.977 11.1771 137.027 11.2906C137.079 11.4013 137.128 11.5175 137.181 11.642H137.216C137.259 11.5396 137.309 11.429 137.358 11.3127C137.41 11.1965 137.463 11.0831 137.512 10.9696C137.565 10.8561 137.611 10.7509 137.658 10.6597L141.014 3.52023L141.953 3.51989ZM150.524 6.32591C150.524 7.15057 150.289 7.7898 149.82 8.24641C149.352 8.70301 148.741 9.01019 147.991 9.16794V9.20665C148.884 9.37544 149.567 9.69365 150.044 10.1669C150.524 10.6373 150.763 11.2876 150.763 12.115C150.763 12.8123 150.591 13.4184 150.251 13.9331C149.911 14.4478 149.404 14.8463 148.733 15.1313C148.064 15.4163 147.241 15.5574 146.263 15.5574C145.568 15.5574 144.914 15.4994 144.297 15.3831C143.681 15.2669 143.14 15.0926 142.675 14.8601V14.041C143 14.2043 143.361 14.3455 143.756 14.4644C144.155 14.5806 144.568 14.6747 144.993 14.7439C145.42 14.8103 145.839 14.8435 146.255 14.8435C147.412 14.8435 148.302 14.6055 148.922 14.124C149.541 13.6453 149.849 12.9756 149.849 12.115C149.849 11.2433 149.524 10.6041 148.875 10.2028C148.224 9.79876 147.258 9.59678 145.981 9.59678H144.132V8.86628H146.048C146.851 8.86628 147.514 8.76941 148.038 8.57294C148.564 8.37919 148.957 8.09418 149.218 7.72341C149.48 7.34984 149.611 6.90427 149.611 6.38127C149.611 5.65349 149.349 5.08345 148.826 4.67388C148.305 4.26431 147.61 4.05953 146.74 4.05953C145.967 4.05953 145.315 4.16192 144.789 4.37222C144.26 4.57972 143.745 4.84538 143.248 5.1692L142.794 4.57701C143.134 4.34454 143.501 4.13424 143.893 3.9461C144.286 3.75515 144.716 3.60844 145.19 3.50053C145.661 3.39262 146.176 3.33726 146.74 3.33726C147.534 3.33726 148.215 3.46181 148.779 3.71083C149.346 3.96265 149.777 4.31135 150.076 4.75683C150.373 5.20512 150.524 5.7282 150.524 6.32591ZM160.293 15.3747H153.488V3.51989H160.293V4.27535H154.363V8.761H159.962V9.51366H154.363V14.622H160.293V15.3747ZM163.129 3.51989H163.967V11.9683C163.967 12.1592 163.964 12.3475 163.961 12.5411C163.958 12.7321 163.955 12.9203 163.949 13.1001C163.943 13.2827 163.938 13.4543 163.932 13.6204C163.926 13.7837 163.917 13.9358 163.906 14.077H163.958L171.293 3.51997H172.189V15.3748H171.354V7.06482C171.354 6.84068 171.357 6.62485 171.363 6.41455C171.368 6.20425 171.371 6.00218 171.377 5.80572C171.383 5.61197 171.392 5.42934 171.401 5.26056C171.409 5.08897 171.415 4.93402 171.421 4.79291H171.371L164.042 15.3748H163.129L163.129 3.51989ZM170.557 0C170.525 0.517481 170.394 0.943606 170.17 1.27846C169.946 1.61332 169.629 1.86234 169.219 2.0284C168.812 2.19167 168.317 2.27471 167.739 2.27471C167.151 2.27471 166.663 2.19439 166.267 2.03673C165.874 1.87626 165.569 1.62716 165.357 1.2923C165.144 0.954728 165.022 0.522999 164.993 0H165.813C165.869 0.592195 166.049 1.01832 166.354 1.27294C166.657 1.53028 167.122 1.65764 167.747 1.65764C168.355 1.65764 168.824 1.53308 169.155 1.27855C169.49 1.02392 169.681 0.597798 169.731 8.49025e-05L170.557 0ZM180.248 3.51989H181.085V11.9683C181.085 12.1592 181.082 12.3475 181.079 12.5411C181.076 12.7321 181.074 12.9203 181.068 13.1001C181.062 13.2827 181.056 13.4543 181.05 13.6204C181.044 13.7837 181.036 13.9358 181.024 14.077H181.077L188.411 3.51997H189.307V15.3748H188.473V7.06482C188.473 6.84068 188.475 6.62485 188.481 6.41455C188.487 6.20425 188.49 6.00218 188.496 5.80572C188.502 5.61197 188.51 5.42934 188.519 5.26056C188.528 5.08897 188.534 4.93402 188.539 4.79291H188.49L181.161 15.3748H180.248L180.248 3.51989ZM198.116 4.08992C197.32 4.08992 196.61 4.21999 195.985 4.47733C195.362 4.73467 194.833 5.09992 194.402 5.57037C193.969 6.04353 193.641 6.60533 193.414 7.2584C193.187 7.91147 193.073 8.63373 193.073 9.41959C193.073 10.5044 193.251 11.4508 193.608 12.2615C193.966 13.0723 194.504 13.7005 195.223 14.1433C195.941 14.5888 196.837 14.8102 197.913 14.8102C198.535 14.8102 199.105 14.766 199.614 14.6774C200.126 14.5889 200.6 14.4726 201.039 14.3343V15.062C200.623 15.2087 200.158 15.3277 199.637 15.4191C199.117 15.5103 198.515 15.5574 197.826 15.5574C196.584 15.5574 195.54 15.3028 194.696 14.7937C193.853 14.2845 193.216 13.5678 192.791 12.6463C192.364 11.7248 192.151 10.6483 192.151 9.41967C192.151 8.53414 192.285 7.72332 192.553 6.9845C192.82 6.24288 193.21 5.60093 193.725 5.05577C194.237 4.51341 194.865 4.09001 195.604 3.78835C196.342 3.48669 197.183 3.33726 198.125 3.33726C198.721 3.33726 199.291 3.39262 199.832 3.50333C200.376 3.61404 200.885 3.77451 201.362 3.98481L201.022 4.71531C200.562 4.49949 200.091 4.34174 199.608 4.24215C199.126 4.14256 198.628 4.08992 198.116 4.08992ZM206.911 15.3747H206.024V4.27535H201.985V3.51989H210.948V4.27535H206.911V15.3747ZM223.285 9.44175C223.285 10.3466 223.169 11.174 222.936 11.9184C222.704 12.6656 222.355 13.3103 221.889 13.8528C221.421 14.3924 220.842 14.813 220.144 15.1119C219.449 15.408 218.638 15.5574 217.713 15.5574C216.782 15.5574 215.965 15.408 215.267 15.1119C214.569 14.813 213.987 14.3924 213.525 13.8473C213.062 13.3049 212.713 12.6573 212.481 11.9074C212.248 11.1575 212.132 10.3301 212.132 9.42791C212.132 8.22416 212.347 7.16713 212.774 6.25111C213.205 5.3379 213.839 4.62396 214.677 4.10928C215.514 3.5946 216.55 3.33726 217.783 3.33726C218.964 3.33726 219.964 3.58356 220.784 4.07337C221.604 4.56317 222.227 5.26327 222.651 6.17648C223.073 7.08689 223.285 8.17713 223.285 9.44175ZM213.054 9.43623C213.054 10.4961 213.219 11.4314 213.554 12.2422C213.891 13.0502 214.403 13.6839 215.098 14.1377C215.79 14.5916 216.666 14.8185 217.722 14.8185C218.789 14.8185 219.667 14.5943 220.354 14.146C221.043 13.6949 221.549 13.0667 221.881 12.2615C222.209 11.4535 222.375 10.5154 222.375 9.44175C222.375 7.7482 221.985 6.43374 221.212 5.49565C220.435 4.56028 219.292 4.08984 217.783 4.08984C216.718 4.08984 215.837 4.31678 215.136 4.76507C214.435 5.21335 213.912 5.83874 213.568 6.64124C213.225 7.44374 213.054 8.37359 213.054 9.43623ZM229.198 3.51989C230.681 3.51989 231.792 3.79107 232.531 4.33071C233.27 4.87035 233.639 5.71156 233.639 6.85163C233.639 7.4355 233.54 7.95298 233.345 8.40407C233.148 8.85516 232.854 9.23705 232.461 9.54414C232.072 9.85132 231.58 10.0838 230.993 10.2414C230.405 10.3992 229.719 10.4767 228.936 10.4767H227.017V15.3747H226.141V3.51989H229.198ZM229.105 4.25879H227.017V9.73789H228.849C229.658 9.73789 230.35 9.65205 230.929 9.47495C231.507 9.30064 231.955 9.0045 232.266 8.5867C232.578 8.17161 232.735 7.60429 232.735 6.88483C232.735 5.9717 232.441 5.30471 231.848 4.8869C231.257 4.46629 230.344 4.25879 229.105 4.25879ZM236.356 3.51989H237.193V11.9683C237.193 12.1592 237.19 12.3475 237.187 12.5411C237.184 12.7321 237.182 12.9203 237.176 13.1001C237.17 13.2827 237.164 13.4543 237.158 13.6204C237.152 13.7837 237.144 13.9358 237.132 14.077H237.185L244.519 3.51997H245.415V15.3748H244.581V7.06482C244.581 6.84068 244.583 6.62485 244.589 6.41455C244.595 6.20425 244.598 6.00218 244.604 5.80572C244.61 5.61197 244.618 5.42934 244.627 5.26056C244.636 5.08897 244.642 4.93402 244.647 4.79291H244.598L237.269 15.3748H236.356L236.356 3.51989ZM248.94 3.51989H249.778V11.9683C249.778 12.1592 249.775 12.3475 249.772 12.5411C249.769 12.7321 249.766 12.9203 249.76 13.1001C249.754 13.2827 249.748 13.4543 249.743 13.6204C249.737 13.7837 249.728 13.9358 249.717 14.077H249.769L257.104 3.51997H258V15.3748H257.165V7.06482C257.165 6.84068 257.168 6.62485 257.174 6.41455C257.179 6.20425 257.182 6.00218 257.188 5.80572C257.194 5.61197 257.203 5.42934 257.212 5.26056C257.22 5.08897 257.226 4.93402 257.232 4.79291H257.182L249.853 15.3748H248.94L248.94 3.51989ZM125.216 35.7232H118.41V23.8684H125.216V24.6238H119.286V29.1095H124.884V29.8622H119.286V34.9705H125.216V35.7232ZM136.198 35.7232H135.081L128.921 29.6823V35.7232H128.046V23.8684H128.921V29.6104L134.903 23.8684H136.011L130.003 29.6243L136.198 35.7232ZM145.819 35.7232L144.123 31.5391H138.891L137.163 35.7232H136.267L141.168 23.8684H141.968L146.74 35.7232H145.819ZM143.841 30.7837L142.122 26.3616C142.075 26.2509 142.02 26.1043 141.956 25.9272C141.889 25.7501 141.822 25.5619 141.75 25.3627C141.68 25.1634 141.61 24.9753 141.543 24.7981C141.485 24.9863 141.421 25.1745 141.354 25.3627C141.287 25.5509 141.22 25.7335 141.159 25.9078C141.095 26.0821 141.037 26.2399 140.979 26.3783L139.19 30.7837H143.841ZM151.76 35.7232H150.873V24.6238H146.833V23.8684H155.797V24.6238H151.76V35.7232ZM164.461 35.7232H157.655V23.8684H164.461V24.6238H158.531V29.1095H164.129V29.8622H158.531V34.9705H164.461V35.7232ZM170.348 23.8684C171.831 23.8684 172.942 24.1396 173.681 24.6792C174.419 25.2188 174.789 26.06 174.789 27.2001C174.789 27.784 174.69 28.3015 174.495 28.7526C174.297 29.2036 174.003 29.5855 173.611 29.8926C173.221 30.1998 172.73 30.4323 172.142 30.5899C171.555 30.7477 170.868 30.8252 170.086 30.8252H168.166V35.7232H167.291V23.8684H170.348ZM170.255 24.6073H168.166V30.0864H169.999C170.807 30.0864 171.499 30.0005 172.078 29.8234C172.657 29.6491 173.105 29.353 173.416 28.9352C173.727 28.5201 173.884 27.9528 173.884 27.2333C173.884 26.3202 173.59 25.6532 172.997 25.2354C172.407 24.8148 171.493 24.6073 170.255 24.6073ZM177.505 23.8684H178.343V32.3168C178.343 32.5077 178.34 32.6959 178.337 32.8896C178.334 33.0805 178.331 33.2688 178.325 33.4486C178.32 33.6312 178.314 33.8028 178.308 33.9689C178.302 34.1322 178.293 34.2843 178.282 34.4255H178.334L185.669 23.8685H186.565V35.7233H185.73V27.4133C185.73 27.1892 185.733 26.9733 185.739 26.763C185.745 26.5527 185.748 26.3507 185.753 26.1542C185.759 25.9605 185.768 25.7778 185.777 25.609C185.785 25.4375 185.791 25.2825 185.797 25.1414H185.748L178.418 35.7233H177.505L177.505 23.8684ZM199.114 35.7232H198.236V29.8789H190.959V35.7232H190.084V23.8684H190.959V29.1178H198.236V23.8684H199.114V35.7232ZM202.633 35.7232V23.8684H209.593V24.6238H203.509V29.0653H205.835C206.824 29.0653 207.636 29.1815 208.273 29.4111C208.91 29.6408 209.381 29.995 209.692 30.471C210 30.9469 210.154 31.5585 210.154 32.3056C210.154 33.4208 209.817 34.2677 209.136 34.8515C208.459 35.4326 207.426 35.7232 206.039 35.7232H202.633ZM203.509 34.9843H205.911C207.071 34.9843 207.915 34.7713 208.447 34.3396C208.979 33.9106 209.244 33.2299 209.244 32.3056C209.244 31.6609 209.11 31.1573 208.843 30.7947C208.575 30.4323 208.179 30.1777 207.656 30.031C207.13 29.8844 206.481 29.8124 205.707 29.8124H203.509L203.509 34.9843ZM221.497 23.8683L217.117 33.0306C216.838 33.609 216.544 34.1154 216.233 34.5499C215.924 34.9815 215.555 35.3164 215.122 35.5516C214.691 35.7869 214.15 35.9058 213.505 35.9058C213.162 35.9058 212.871 35.881 212.626 35.8339C212.382 35.7841 212.167 35.726 211.978 35.6624V34.8184C212.187 34.918 212.414 34.9927 212.658 35.0454C212.903 35.1007 213.167 35.1284 213.452 35.1284C213.935 35.1284 214.342 35.0343 214.674 34.8517C215.008 34.6663 215.299 34.3979 215.549 34.0437C215.8 33.6867 216.041 33.2522 216.274 32.7375L211.408 23.8685H212.371L216.23 30.9582C216.297 31.08 216.358 31.1934 216.413 31.3041C216.468 31.4148 216.521 31.5255 216.57 31.639C216.623 31.7497 216.672 31.8659 216.724 31.9904H216.759C216.803 31.888 216.852 31.7774 216.902 31.6611C216.954 31.5449 217.006 31.4315 217.056 31.318C217.108 31.2045 217.155 31.0993 217.201 31.0081L220.557 23.8686L221.497 23.8683ZM226.334 23.8683C227.817 23.8683 228.928 24.1395 229.666 24.6791C230.405 25.2188 230.775 26.06 230.775 27.2C230.775 27.7839 230.676 28.3014 230.481 28.7525C230.283 29.2036 229.989 29.5855 229.597 29.8925C229.207 30.1997 228.716 30.4322 228.128 30.5898C227.541 30.7476 226.854 30.8251 226.072 30.8251H224.152V35.7231H223.277V23.8683H226.334ZM226.24 24.6072H224.152V30.0863H225.985C226.793 30.0863 227.485 30.0005 228.064 29.8233C228.643 29.649 229.091 29.3529 229.402 28.9351C229.713 28.52 229.87 27.9527 229.87 27.2332C229.87 26.3201 229.576 25.6531 228.983 25.2353C228.393 24.8147 227.479 24.6072 226.24 24.6072ZM240.308 23.8683V24.6293H234.361V35.7231H233.485V23.8683H240.308ZM250.04 35.7231L248.344 31.5391H243.112L241.384 35.7231H240.489L245.389 23.8683H246.189L250.961 35.7231H250.04ZM248.062 30.7836L246.343 26.3615C246.296 26.2508 246.241 26.1042 246.177 25.9271C246.11 25.75 246.043 25.5618 245.971 25.3626C245.901 25.1633 245.831 24.9752 245.764 24.7981C245.706 24.9862 245.642 25.1744 245.575 25.3626C245.508 25.5508 245.441 25.7334 245.38 25.9077C245.316 26.082 245.258 26.2398 245.2 26.3782L243.411 30.7836H248.062Z"/>
<path d="M14.9011 36L7.90173 12.5658H7.69418C8.0214 16.5601 8.18103 19.6583 8.18103 21.8681V36H0.000488281V3.46838H12.2992L19.4342 26.5686H19.6258L26.6171 3.46838H38.9397V36H30.448V21.739C30.448 20.9948 30.4639 20.1746 30.4878 19.2634C30.5118 18.3598 30.6155 16.1424 30.7991 12.6113H30.5916L23.6881 36H14.901H14.9011ZM46.2984 3.46838H54.5267V17.4409C54.5267 18.9292 54.399 21.8908 54.1516 26.3408H54.3432L67.9667 3.46838H79.3716V36H71.191V22.3844C71.191 20.3189 71.3267 17.2358 71.614 13.1277H71.4224L57.6791 36H46.2982V3.46838H46.2984ZM107.074 36H86.77V3.46838H107.074V10.5306H96.004V15.6335H106.252V22.6957H96.004V28.8467H107.074V35.9999V36Z"/>
</g>
<defs>
<clipPath id="clip0_360_1062">
<rect width="258" height="36" fill="white"/>
</clipPath>
</defs>
</svg>
