<svg width="158" height="24" viewBox="0 0 158 24" fill="white" xmlns="http://www.w3.org/2000/svg">
<path d="M75.6107 10.3921L72.8091 3.68802H72.7824C72.7895 3.81006 72.7948 3.93885 72.8002 4.07273C72.8055 4.20662 72.8108 4.34726 72.8144 4.493C72.818 4.63875 72.8198 4.79124 72.8198 4.94884V10.3921H72.3086V3.13215H73.1226L75.8245 9.59731H75.8566L78.5799 3.13215H79.3725V10.3921H78.8452V4.88951C78.8452 4.76072 78.847 4.6285 78.8506 4.49295C78.8542 4.3574 78.8595 4.2218 78.8649 4.08792C78.8702 3.95403 78.8755 3.82357 78.8827 3.69816H78.8506L76.0382 10.3921H75.6107ZM86.7265 3.13215L84.0442 8.74319C83.8732 9.09738 83.6933 9.40753 83.5027 9.67358C83.3139 9.93792 83.0878 10.143 82.8223 10.2871C82.5587 10.4311 82.2275 10.504 81.8321 10.504C81.6219 10.504 81.4438 10.4888 81.2942 10.4599C81.1446 10.4294 81.0128 10.3939 80.897 10.3549V9.83804C81.0253 9.89903 81.1642 9.94479 81.3138 9.97702C81.4635 10.0109 81.6255 10.0279 81.8001 10.0279C82.0957 10.0279 82.3451 9.97026 82.5481 9.85842C82.7529 9.74487 82.9311 9.58051 83.0843 9.36359C83.2374 9.14496 83.3852 8.8789 83.5277 8.56371L80.548 3.13231H81.1375L83.501 7.47406C83.5419 7.54862 83.5793 7.61808 83.6132 7.68588C83.647 7.75369 83.6791 7.82143 83.7094 7.89095C83.7414 7.95875 83.7716 8.02993 83.8037 8.10616H83.8251C83.8518 8.04345 83.8821 7.9757 83.9124 7.90452C83.9444 7.83334 83.9765 7.76388 84.0067 7.69436C84.0388 7.6249 84.0673 7.56047 84.0958 7.50458L86.1512 3.13236L86.7265 3.13215ZM91.9753 4.85057C91.9753 5.35559 91.8311 5.74706 91.5443 6.02669C91.2575 6.30631 90.8835 6.49443 90.424 6.59104V6.61475C90.9708 6.71811 91.3893 6.91299 91.6814 7.2028C91.9753 7.4909 92.1214 7.88913 92.1214 8.39582C92.1214 8.82285 92.0163 9.19404 91.8079 9.50923C91.5995 9.82442 91.2896 10.0685 90.8782 10.243C90.4685 10.4176 89.9645 10.504 89.366 10.504C88.9404 10.504 88.5396 10.4684 88.162 10.3972C87.7844 10.3261 87.4532 10.2193 87.1682 10.077V9.57531C87.3676 9.6753 87.5885 9.76177 87.8308 9.83461C88.0748 9.90579 88.3277 9.9634 88.5877 10.0058C88.8495 10.0464 89.106 10.0668 89.3607 10.0668C90.0696 10.0668 90.6145 9.92103 90.9939 9.62616C91.3733 9.33297 91.5621 8.92289 91.5621 8.39582C91.5621 7.86199 91.3626 7.47052 90.9654 7.2248C90.5665 6.97736 89.9752 6.85366 89.1933 6.85366H88.0605V6.4063H89.2342C89.7258 6.4063 90.1319 6.34697 90.4525 6.22666C90.7749 6.10801 91.0153 5.93346 91.1756 5.7064C91.3359 5.47762 91.4161 5.20476 91.4161 4.88447C91.4161 4.43877 91.2558 4.08968 90.9352 3.83886C90.6164 3.58804 90.1907 3.46263 89.6582 3.46263C89.1844 3.46263 88.7854 3.52533 88.4631 3.65412C88.1389 3.7812 87.8237 3.94389 87.5191 4.1422L87.2412 3.77954C87.4496 3.63717 87.674 3.50838 87.9145 3.39316C88.1549 3.27623 88.4185 3.18638 88.7089 3.1203C88.9974 3.05421 89.3127 3.02031 89.6582 3.02031C90.1444 3.02031 90.5612 3.09659 90.9067 3.24909C91.254 3.4033 91.5176 3.61684 91.7011 3.88966C91.8827 4.16419 91.9753 4.48453 91.9753 4.85057ZM97.958 10.3921H93.7902V3.13215H97.958V3.5948H94.3263V6.34183H97.7549V6.80276H94.3263V9.93111H97.958V10.3921ZM99.6945 3.13215H100.208V8.30597C100.208 8.42291 100.206 8.53818 100.204 8.65678C100.202 8.77371 100.2 8.88899 100.197 8.99911C100.193 9.11095 100.19 9.21603 100.186 9.31773C100.183 9.41772 100.177 9.51089 100.17 9.59736H100.202L104.694 3.1322H105.243V10.3921H104.732V5.30308C104.732 5.16581 104.733 5.03364 104.737 4.90485C104.74 4.77606 104.742 4.65232 104.746 4.532C104.749 4.41335 104.755 4.30151 104.76 4.19814C104.765 4.09306 104.769 3.99817 104.773 3.91176H104.742L100.254 10.3921H99.6946L99.6945 3.13215ZM104.243 0.976562C104.224 1.29347 104.144 1.55443 104.007 1.7595C103.869 1.96456 103.675 2.11706 103.424 2.21876C103.175 2.31875 102.872 2.3696 102.518 2.3696C102.158 2.3696 101.859 2.32041 101.616 2.22386C101.376 2.12559 101.189 1.97304 101.059 1.76797C100.929 1.56124 100.854 1.29685 100.836 0.976562H101.339C101.372 1.33922 101.483 1.60018 101.67 1.75612C101.855 1.91371 102.14 1.9917 102.523 1.9917C102.895 1.9917 103.182 1.91543 103.385 1.75955C103.59 1.60362 103.707 1.34266 103.738 0.976614L104.243 0.976562ZM110.178 3.13215H110.691V8.30597C110.691 8.42291 110.689 8.53818 110.687 8.65678C110.686 8.77371 110.684 8.88899 110.68 8.99911C110.677 9.11095 110.673 9.21603 110.67 9.31773C110.666 9.41772 110.661 9.51089 110.654 9.59736H110.686L115.178 3.1322H115.726V10.3921H115.215V5.30308C115.215 5.16581 115.217 5.03364 115.22 4.90485C115.224 4.77606 115.226 4.65232 115.229 4.532C115.233 4.41335 115.238 4.30151 115.244 4.19814C115.249 4.09306 115.252 3.99817 115.256 3.91176H115.226L110.737 10.3921H110.178L110.178 3.13215ZM121.121 3.48124C120.633 3.48124 120.198 3.5609 119.815 3.71849C119.434 3.87609 119.11 4.09977 118.847 4.38787C118.581 4.67764 118.38 5.02168 118.241 5.42163C118.102 5.82157 118.033 6.26389 118.033 6.74515C118.033 7.40948 118.141 7.98906 118.36 8.48556C118.579 8.98211 118.909 9.36682 119.349 9.63797C119.789 9.91078 120.337 10.0464 120.996 10.0464C121.377 10.0464 121.726 10.0193 122.038 9.96507C122.352 9.91083 122.642 9.83965 122.911 9.7549V10.2006C122.656 10.2904 122.371 10.3633 122.052 10.4192C121.734 10.4751 121.365 10.5039 120.943 10.5039C120.182 10.5039 119.543 10.3481 119.026 10.0362C118.51 9.72443 118.12 9.2855 117.86 8.7212C117.598 8.15685 117.468 7.49761 117.468 6.7452C117.468 6.2029 117.55 5.70635 117.714 5.25389C117.878 4.79972 118.116 4.40659 118.432 4.07273C118.745 3.74059 119.13 3.48129 119.582 3.29656C120.035 3.11182 120.549 3.02031 121.126 3.02031C121.491 3.02031 121.841 3.05421 122.172 3.12201C122.505 3.18981 122.817 3.28808 123.109 3.41687L122.9 3.86423C122.619 3.73206 122.33 3.63546 122.035 3.57447C121.739 3.51348 121.434 3.48124 121.121 3.48124ZM126.507 10.3921H125.964V3.5948H123.49V3.13215H128.979V3.5948H126.507V10.3921ZM136.534 6.75872C136.534 7.31288 136.463 7.81956 136.321 8.27545C136.178 8.733 135.965 9.12785 135.68 9.46004C135.393 9.79052 135.038 10.0481 134.611 10.2311C134.185 10.4125 133.688 10.504 133.122 10.504C132.552 10.504 132.051 10.4125 131.624 10.2311C131.197 10.0481 130.84 9.79052 130.557 9.45666C130.274 9.12452 130.06 8.72796 129.918 8.26869C129.775 7.80942 129.704 7.30274 129.704 6.75024C129.704 6.01306 129.836 5.36573 130.098 4.80476C130.361 4.24551 130.749 3.80829 131.262 3.4931C131.775 3.17791 132.409 3.02031 133.165 3.02031C133.888 3.02031 134.5 3.17115 135.003 3.4711C135.505 3.77106 135.886 4.19981 136.146 4.75906C136.404 5.3166 136.534 5.98426 136.534 6.75872ZM130.269 6.75534C130.269 7.40439 130.37 7.97721 130.575 8.47371C130.781 8.96854 131.095 9.35663 131.521 9.63454C131.945 9.9125 132.481 10.0514 133.127 10.0514C133.781 10.0514 134.319 9.91416 134.739 9.63963C135.161 9.36338 135.471 8.97868 135.674 8.48556C135.875 7.99073 135.977 7.41624 135.977 6.75872C135.977 5.72158 135.738 4.9166 135.265 4.34212C134.789 3.76929 134.089 3.48119 133.165 3.48119C132.513 3.48119 131.973 3.62017 131.544 3.8947C131.115 4.16923 130.794 4.55223 130.584 5.04368C130.374 5.53513 130.269 6.10458 130.269 6.75534ZM140.155 3.13215C141.064 3.13215 141.744 3.29822 142.197 3.6287C142.649 3.95918 142.875 4.47434 142.875 5.17252C142.875 5.53009 142.815 5.84699 142.695 6.12324C142.574 6.39949 142.394 6.63336 142.154 6.82142C141.915 7.00954 141.614 7.1519 141.254 7.24846C140.895 7.34506 140.474 7.39253 139.995 7.39253H138.82V10.3921H138.284V3.13215H140.155ZM140.098 3.58466H138.82V6.94007H139.942C140.437 6.94007 140.861 6.88751 141.215 6.77905C141.57 6.6723 141.844 6.49095 142.035 6.23508C142.225 5.98088 142.321 5.63345 142.321 5.19285C142.321 4.63365 142.141 4.22518 141.778 3.96932C141.416 3.71173 140.857 3.58466 140.098 3.58466ZM144.539 3.13215H145.052V8.30597C145.052 8.42291 145.05 8.53818 145.048 8.65678C145.046 8.77371 145.045 8.88899 145.041 8.99911C145.037 9.11095 145.034 9.21603 145.03 9.31773C145.027 9.41772 145.021 9.51089 145.014 9.59736H145.046L149.538 3.1322H150.087V10.3921H149.576V5.30308C149.576 5.16581 149.578 5.03364 149.581 4.90485C149.585 4.77606 149.586 4.65232 149.59 4.532C149.594 4.41335 149.599 4.30151 149.604 4.19814C149.61 4.09306 149.613 3.99817 149.617 3.91176H149.586L145.098 10.3921H144.539L144.539 3.13215ZM152.245 3.13215H152.758V8.30597C152.758 8.42291 152.757 8.53818 152.755 8.65678C152.753 8.77371 152.751 8.88899 152.748 8.99911C152.744 9.11095 152.741 9.21603 152.737 9.31773C152.733 9.41772 152.728 9.51089 152.721 9.59736H152.753L157.245 3.1322H157.794V10.3921H157.282V5.30308C157.282 5.16581 157.284 5.03364 157.288 4.90485C157.291 4.77606 157.293 4.65232 157.297 4.532C157.3 4.41335 157.306 4.30151 157.311 4.19814C157.316 4.09306 157.32 3.99817 157.323 3.91176H157.293L152.805 10.3921H152.246L152.245 3.13215ZM76.4763 22.8536H72.3086V15.5936H76.4763V16.0563H72.8447V18.8033H76.2733V19.2642H72.8447V22.3926H76.4763V22.8536ZM83.2017 22.8536H82.5178L78.7454 19.1541V22.8536H78.2093V15.5936H78.7454V19.1101L82.4091 15.5936H83.0877L79.408 19.1185L83.2017 22.8536ZM89.0936 22.8536L88.0552 20.2912H84.851L83.7931 22.8536H83.2445L86.2456 15.5936H86.7354L89.6581 22.8536H89.0936ZM87.8824 19.8286L86.8298 17.1205C86.8013 17.0527 86.7675 16.9629 86.7282 16.8544C86.6873 16.746 86.6463 16.6308 86.6018 16.5087C86.559 16.3867 86.5163 16.2715 86.4753 16.163C86.4397 16.2782 86.4005 16.3935 86.3596 16.5087C86.3186 16.624 86.2777 16.7358 86.2402 16.8426C86.201 16.9493 86.1654 17.0459 86.1298 17.1307L85.0344 19.8286H87.8824ZM92.7323 22.8536H92.1891V16.0563H89.7151V15.5936H95.2044V16.0563H92.7323V22.8536ZM100.51 22.8536H96.3425V15.5936H100.51V16.0563H96.8786V18.8033H100.307V19.2642H96.8786V22.3926H100.51V22.8536ZM104.115 15.5936C105.024 15.5936 105.704 15.7597 106.156 16.0902C106.609 16.4207 106.835 16.9358 106.835 17.634C106.835 17.9916 106.774 18.3085 106.655 18.5847C106.534 18.861 106.354 19.0948 106.114 19.2829C105.875 19.471 105.574 19.6134 105.214 19.7099C104.854 19.8065 104.434 19.854 103.955 19.854H102.779V22.8536H102.243V15.5936H104.115ZM104.058 16.0461H102.779V19.4016H103.902C104.397 19.4016 104.821 19.349 105.175 19.2405C105.529 19.1338 105.804 18.9524 105.994 18.6966C106.185 18.4424 106.281 18.0949 106.281 17.6543C106.281 17.0951 106.101 16.6867 105.738 16.4308C105.376 16.1732 104.817 16.0461 104.058 16.0461ZM108.499 15.5936H109.011V20.7674C109.011 20.8844 109.01 20.9997 109.008 21.1183C109.006 21.2352 109.004 21.3505 109.001 21.4606C108.997 21.5724 108.994 21.6775 108.99 21.7792C108.987 21.8792 108.981 21.9724 108.974 22.0588H109.006L113.498 15.5937H114.047V22.8536H113.536V17.7646C113.536 17.6273 113.537 17.4951 113.541 17.3663C113.544 17.2375 113.546 17.1138 113.55 16.9935C113.553 16.8748 113.559 16.763 113.564 16.6596C113.569 16.5545 113.573 16.4596 113.577 16.3732H113.546L109.058 22.8536H108.499L108.499 15.5936ZM121.732 22.8536H121.194V19.2745H116.738V22.8536H116.202V15.5936H116.738V18.8084H121.194V15.5936H121.732V22.8536ZM123.887 22.8536V15.5936H128.149V16.0563H124.423V18.7762H125.848C126.454 18.7762 126.951 18.8474 127.341 18.988C127.731 19.1287 128.019 19.3456 128.21 19.6371C128.399 19.9286 128.493 20.3031 128.493 20.7606C128.493 21.4436 128.286 21.9622 127.87 22.3197C127.455 22.6756 126.822 22.8536 125.973 22.8536H123.887ZM124.423 22.4011H125.894C126.605 22.4011 127.122 22.2706 127.447 22.0062C127.773 21.7435 127.935 21.3267 127.935 20.7606C127.935 20.3658 127.854 20.0574 127.69 19.8353C127.526 19.6134 127.284 19.4574 126.963 19.3677C126.641 19.2779 126.243 19.2338 125.77 19.2338H124.423L124.423 22.4011ZM135.439 15.5936L132.757 21.2046C132.586 21.5588 132.406 21.869 132.215 22.135C132.027 22.3993 131.8 22.6044 131.535 22.7485C131.271 22.8926 130.94 22.9654 130.545 22.9654C130.335 22.9654 130.157 22.9502 130.007 22.9214C129.857 22.8909 129.726 22.8553 129.61 22.8163V22.2995C129.738 22.3605 129.877 22.4062 130.027 22.4384C130.176 22.4724 130.338 22.4893 130.513 22.4893C130.808 22.4893 131.058 22.4317 131.261 22.3198C131.466 22.2063 131.644 22.0419 131.797 21.825C131.95 21.6064 132.098 21.3403 132.24 21.0251L129.261 15.5937H129.85L132.214 19.9355C132.255 20.01 132.292 20.0795 132.326 20.1473C132.36 20.2151 132.392 20.2829 132.422 20.3524C132.454 20.4202 132.484 20.4914 132.516 20.5676H132.538C132.565 20.5049 132.595 20.4371 132.625 20.3659C132.657 20.2948 132.689 20.2253 132.719 20.1558C132.752 20.0863 132.78 20.0219 132.809 19.966L134.864 15.5938L135.439 15.5936ZM138.401 15.5936C139.31 15.5936 139.99 15.7596 140.442 16.0901C140.895 16.4206 141.121 16.9358 141.121 17.6339C141.121 17.9915 141.06 18.3084 140.941 18.5847C140.82 18.8609 140.64 19.0948 140.4 19.2828C140.161 19.471 139.86 19.6133 139.5 19.7099C139.14 19.8065 138.72 19.854 138.241 19.854H137.065V22.8535H136.529V15.5936H138.401ZM138.344 16.0461H137.065V19.4015H138.187C138.683 19.4015 139.106 19.3489 139.461 19.2405C139.815 19.1337 140.09 18.9524 140.28 18.6965C140.471 18.4423 140.567 18.0949 140.567 17.6543C140.567 17.0951 140.387 16.6866 140.024 16.4307C139.662 16.1732 139.103 16.0461 138.344 16.0461ZM146.959 15.5936V16.0596H143.317V22.8535H142.781V15.5936H146.959ZM152.919 22.8535L151.88 20.2912H148.676L147.618 22.8535H147.07L150.071 15.5936H150.561L153.483 22.8535H152.919ZM151.708 19.8285L150.655 17.1204C150.627 17.0526 150.593 16.9629 150.553 16.8544C150.513 16.7459 150.472 16.6307 150.427 16.5087C150.384 16.3866 150.342 16.2714 150.301 16.163C150.265 16.2782 150.226 16.3935 150.185 16.5087C150.144 16.624 150.103 16.7358 150.065 16.8425C150.026 16.9493 149.991 17.0459 149.955 17.1306L148.86 19.8285H151.708Z" fill="white"/>
<path d="M9.12543 23.0231L4.83899 8.67185H4.71189C4.91227 11.118 5.01003 13.0154 5.01003 14.3686V23.0231H0.000244141V3.10059H7.53201L11.9015 17.2472H12.0188L16.3004 3.10059H23.8468V23.0231H18.6464V14.2895C18.6464 13.8338 18.6561 13.3315 18.6708 12.7735C18.6854 12.2201 18.749 10.8622 18.8614 8.69972H18.7343L14.5066 23.0231H9.12538H9.12543ZM28.3532 3.10059H33.3923V11.6574C33.3923 12.5688 33.3141 14.3825 33.1626 17.1077H33.2799L41.623 3.10059H48.6073V23.0231H43.5976V14.6848C43.5976 13.4199 43.6806 11.5318 43.8566 9.01595H43.7393L35.3228 23.0231H28.3531V3.10059H28.3532ZM65.5722 23.0231H53.1382V3.10059H65.5722V7.42549H58.7931V10.5506H65.0688V14.8755H58.7931V18.6423H65.5722V23.023V23.0231Z" fill="white"/>
</svg>
